<svg width="500" height="250" viewBox="0 0 500 250" fill="none" xmlns="http://www.w3.org/2000/svg">
  <!-- Background -->
  <rect width="500" height="250" rx="8" fill="#FFFFFF"/>
  
  <!-- Code editor with highlighted parameter -->
  <rect x="20" y="20" width="460" height="210" rx="6" fill="#F8FAFC" stroke="#E2E8F0" stroke-width="2"/>
  
  <!-- Line numbers -->
  <rect x="20" y="20" width="30" height="210" rx="6 0 0 6" fill="#F1F5F9"/>
  <rect x="30" y="35" width="10" height="10" rx="2" fill="#94A3B8"/>
  <rect x="30" y="65" width="10" height="10" rx="2" fill="#94A3B8"/>
  <rect x="30" y="95" width="10" height="10" rx="2" fill="#94A3B8"/>
  <rect x="30" y="125" width="10" height="10" rx="2" fill="#94A3B8"/>
  <rect x="30" y="155" width="10" height="10" rx="2" fill="#94A3B8"/>
  <rect x="30" y="185" width="10" height="10" rx="2" fill="#94A3B8"/>
  
  <!-- Code syntax -->
  <rect x="60" y="35" width="60" height="10" rx="2" fill="#8B5CF6"/>
  <rect x="130" y="35" width="100" height="10" rx="2" fill="#10B981"/>
  <rect x="240" y="35" width="40" height="10" rx="2" fill="#94A3B8"/>
  
  <rect x="60" y="65" width="80" height="10" rx="2" fill="#8B5CF6"/>
  <rect x="150" y="65" width="150" height="10" rx="2" fill="#94A3B8"/>
  
  <rect x="60" y="95" width="60" height="10" rx="2" fill="#8B5CF6"/>
  <rect x="130" y="95" width="40" height="10" rx="2" fill="#EC4899"/>
  <rect x="180" y="95" width="60" height="10" rx="2" fill="#94A3B8"/>
  <rect x="250" y="95" width="80" height="10" rx="2" fill="#10B981"/>
  
  <!-- Highlighted parameter -->
  <rect x="60" y="125" width="80" height="10" rx="2" fill="#8B5CF6"/>
  <rect x="150" y="125" width="50" height="10" rx="2" fill="#94A3B8"/>
  <rect x="210" y="125" width="100" height="14" rx="2" fill="#DBEAFE" stroke="#3B82F6" stroke-width="2">
    <animate attributeName="stroke-opacity" values="1;0.5;1" dur="2s" repeatCount="indefinite" />
  </rect>
  <rect x="215" y="127" width="90" height="10" rx="2" fill="#3B82F6"/>
  <rect x="320" y="125" width="40" height="10" rx="2" fill="#94A3B8"/>
  
  <rect x="60" y="155" width="80" height="10" rx="2" fill="#8B5CF6"/>
  <rect x="150" y="155" width="180" height="10" rx="2" fill="#94A3B8"/>
  
  <rect x="60" y="185" width="60" height="10" rx="2" fill="#8B5CF6"/>
  <rect x="130" y="185" width="40" height="10" rx="2" fill="#94A3B8"/>
  <rect x="180" y="185" width="120" height="10" rx="2" fill="#10B981"/>
  
  <!-- Animated cursor -->
  <rect x="260" y="125" width="2" height="14" fill="#000000">
    <animate attributeName="opacity" values="1;0;1" dur="1s" repeatCount="indefinite" />
  </rect>
  
  <!-- Animated highlight pointer -->
  <path d="M210 150L230 140L250 150" stroke="#3B82F6" stroke-width="2" fill="none">
    <animate attributeName="stroke-opacity" values="1;0.5;1" dur="2s" repeatCount="indefinite" />
  </path>
</svg>