<svg width="500" height="250" viewBox="0 0 500 250" fill="none" xmlns="http://www.w3.org/2000/svg">
  <!-- Card background -->
  <rect width="500" height="250" rx="8" fill="#FFFFFF"/>
  <rect x="10" y="10" width="480" height="230" rx="6" fill="#F8FAFC" stroke="#E2E8F0" stroke-width="2"/>
  
  <!-- Card header -->
  <rect x="20" y="20" width="460" height="50" rx="4" fill="#F1F5F9"/>
  <rect x="30" y="30" width="200" height="14" rx="2" fill="#0EA5E9"/>
  <rect x="30" y="50" width="300" height="10" rx="2" fill="#94A3B8"/>
  
  <!-- Parameter value section -->
  <rect x="30" y="80" width="440" height="40" rx="4" fill="#EFF6FF"/>
  <rect x="40" y="90" width="50" height="10" rx="2" fill="#2563EB"/>
  <rect x="100" y="90" width="100" height="10" rx="2" fill="#3B82F6"/>
  <rect x="40" y="105" width="350" height="10" rx="2" fill="#60A5FA"/>
  
  <!-- Alternative values section -->
  <rect x="30" y="130" width="440" height="60" rx="4" fill="#F0FDF4"/>
  <rect x="40" y="140" width="80" height="10" rx="2" fill="#16A34A"/>
  <rect x="40" y="155" width="150" height="10" rx="2" fill="#22C55E"/>
  <rect x="200" y="155" width="60" height="10" rx="2" fill="#4ADE80"/>
  <rect x="40" y="170" width="250" height="10" rx="2" fill="#86EFAC"/>
  
  <!-- Impact indicator -->
  <rect x="400" y="30" width="70" height="24" rx="12" fill="#FDE68A"/>
  <rect x="410" y="37" width="50" height="10" rx="2" fill="#F59E0B"/>
  
  <!-- Animated explanation reveal -->
  <rect x="20" y="200" width="460" height="30" rx="4" fill="#F8FAFC">
    <animate attributeName="height" values="0;30" dur="1s" begin="0.5s" fill="freeze" />
  </rect>
  <rect x="30" y="210" width="440" height="10" rx="2" fill="#CBD5E1">
    <animate attributeName="opacity" values="0;1" dur="0.7s" begin="1s" fill="freeze" />
  </rect>
</svg>